{"accessors" : [{"bufferView" : 0, "byteOffset" : 0, "componentType" : 5123, "count" : 108, "type" : "SCALAR", "max" : [19], "min" : [0]}, {"bufferView" : 1, "byteOffset" : 0, "componentType" : 5126, "count" : 20, "type" : "VEC3", "max" : [0.9183686375617981, 1.6398500204086304, -4.199949264526367], "min" : [0.03199820592999458, 1.6030359268188477, -4.569099426269531], "name" : "POSITION"}, {"bufferView" : 1, "byteOffset" : 12, "componentType" : 5126, "count" : 20, "type" : "VEC3", "max" : [0.9145380258560181, 0.9865090250968933, 0.8861656188964844], "min" : [-0.5182060599327087, -0.8902101516723633, -0.9060746431350708], "name" : "NORMAL"}, {"bufferView" : 0, "byteOffset" : 216, "componentType" : 5123, "count" : 564, "type" : "SCALAR", "max" : [95], "min" : [0]}, {"bufferView" : 2, "byteOffset" : 0, "componentType" : 5126, "count" : 96, "type" : "VEC3", "max" : [0.156276673078537, 0.45870721340179443, 4.868911266326904], "min" : [-0.156276673078537, 0.1666601449251175, 4.649880886077881], "name" : "POSITION"}, {"bufferView" : 2, "byteOffset" : 12, "componentType" : 5126, "count" : 96, "type" : "VEC3", "max" : [0.9573896527290344, 0.9654857516288757, 0.9934496879577637], "min" : [-0.9573896527290344, -0.9861583113670349, -0.44629019498825073], "name" : "NORMAL"}, {"bufferView" : 0, "byteOffset" : 1344, "componentType" : 5123, "count" : 372, "type" : "SCALAR", "max" : [63], "min" : [0]}, {"bufferView" : 3, "byteOffset" : 0, "componentType" : 5126, "count" : 64, "type" : "VEC3", "max" : [-0.022639229893684387, 0.2881509065628052, 4.7538065910339355], "min" : [-1.101692795753479, -0.40302473306655884, 4.676762104034424], "name" : "POSITION"}, {"bufferView" : 3, "byteOffset" : 12, "componentType" : 5126, "count" : 64, "type" : "VEC3", "max" : [0.9652796387672424, 0.9891455769538879, 0.9892523288726807], "min" : [-0.6751790642738342, -0.7469515800476074, -0.9665628671646118], "name" : "NORMAL"}, {"bufferView" : 0, "byteOffset" : 2088, "componentType" : 5123, "count" : 372, "type" : "SCALAR", "max" : [63], "min" : [0]}, {"bufferView" : 4, "byteOffset" : 0, "componentType" : 5126, "count" : 64, "type" : "VEC3", "max" : [0.11884848028421402, 1.474211573600769, 4.763451099395752], "min" : [-0.11884848028421402, 0.28898105025291443, 4.653931140899658], "name" : "POSITION"}, {"bufferView" : 4, "byteOffset" : 12, "componentType" : 5126, "count" : 64, "type" : "VEC3", "max" : [0.9144449830055237, 0.76499342918396, 0.958023190498352], "min" : [-0.9604920744895935, -0.7138419151306152, -0.9774789214134216], "name" : "NORMAL"}, {"bufferView" : 0, "byteOffset" : 2832, "componentType" : 5123, "count" : 372, "type" : "SCALAR", "max" : [63], "min" : [0]}, {"bufferView" : 5, "byteOffset" : 0, "componentType" : 5126, "count" : 64, "type" : "VEC3", "max" : [1.0601508617401123, 0.2881509065628052, 4.7538065910339355], "min" : [-0.018902739509940147, -0.40302473306655884, 4.676762104034424], "name" : "POSITION"}, {"bufferView" : 5, "byteOffset" : 12, "componentType" : 5126, "count" : 64, "type" : "VEC3", "max" : [0.675179123878479, 0.9891455769538879, 0.9892523288726807], "min" : [-0.9652796387672424, -0.7469516396522522, -0.9665628671646118], "name" : "NORMAL"}, {"bufferView" : 0, "byteOffset" : 3576, "componentType" : 5123, "count" : 3396, "type" : "SCALAR", "max" : [569], "min" : [0]}, {"bufferView" : 6, "byteOffset" : 0, "componentType" : 5126, "count" : 570, "type" : "VEC3", "max" : [6.942478656768799, 2.0526301860809326, 4.698385238647461], "min" : [-6.9424943923950195, -0.5934197306632996, -4.792370319366455], "name" : "POSITION"}, {"bufferView" : 6, "byteOffset" : 12, "componentType" : 5126, "count" : 570, "type" : "VEC3", "max" : [0.9986311197280884, 0.9986786246299744, 0.9988057613372803], "min" : [-0.9986311197280884, -0.99990314245224, -0.9788022637367249], "name" : "NORMAL"}, {"bufferView" : 0, "byteOffset" : 10368, "componentType" : 5123, "count" : 762, "type" : "SCALAR", "max" : [128], "min" : [0]}, {"bufferView" : 7, "byteOffset" : 0, "componentType" : 5126, "count" : 129, "type" : "VEC3", "max" : [-1.282191514968872, -0.9936242699623108, 1.3258192539215088], "min" : [-1.5247430801391602, -1.663656234741211, 0.6557872295379639], "name" : "POSITION"}, {"bufferView" : 7, "byteOffset" : 12, "componentType" : 5126, "count" : 129, "type" : "VEC3", "max" : [0.9264692068099976, 0.9307053685188293, 0.9212185144424438], "min" : [-0.9299926161766052, -0.9212185144424438, -0.9212185144424438], "name" : "NORMAL"}, {"bufferView" : 0, "byteOffset" : 11892, "componentType" : 5123, "count" : 756, "type" : "SCALAR", "max" : [127], "min" : [0]}, {"bufferView" : 8, "byteOffset" : 0, "componentType" : 5126, "count" : 128, "type" : "VEC3", "max" : [1.5194259881973267, -0.9936242699623108, 1.3258192539215088], "min" : [1.2768744230270386, -1.663656234741211, 0.6557872295379639], "name" : "POSITION"}, {"bufferView" : 8, "byteOffset" : 12, "componentType" : 5126, "count" : 128, "type" : "VEC3", "max" : [0.9264692068099976, 0.9212185144424438, 0.9212185144424438], "min" : [-0.9264692068099976, -0.9212185144424438, -0.9212185144424438], "name" : "NORMAL"}, {"bufferView" : 0, "byteOffset" : 13404, "componentType" : 5123, "count" : 756, "type" : "SCALAR", "max" : [127], "min" : [0]}, {"bufferView" : 9, "byteOffset" : 0, "componentType" : 5126, "count" : 128, "type" : "VEC3", "max" : [0.12127579003572464, -1.02034330368042, 4.352306842803955], "min" : [-0.12127579003572464, -1.6903752088546753, 3.68227481842041], "name" : "POSITION"}, {"bufferView" : 9, "byteOffset" : 12, "componentType" : 5126, "count" : 128, "type" : "VEC3", "max" : [0.9264692068099976, 0.9212185144424438, 0.9212185144424438], "min" : [-0.9264692068099976, -0.9212185144424438, -0.9212185144424438], "name" : "NORMAL"}, {"bufferView" : 0, "byteOffset" : 14916, "componentType" : 5123, "count" : 282, "type" : "SCALAR", "max" : [48], "min" : [0]}, {"bufferView" : 10, "byteOffset" : 0, "componentType" : 5126, "count" : 49, "type" : "VEC3", "max" : [0.0862024575471878, 1.7111228704452515, 0.5361411571502686], "min" : [-0.0862024575471878, 1.3331907987594604, 0.06213223561644554], "name" : "POSITION"}, {"bufferView" : 10, "byteOffset" : 12, "componentType" : 5126, "count" : 49, "type" : "VEC3", "max" : [0.9998488426208496, 0.5991659760475159, 0.9308654069900513], "min" : [-0.9998488426208496, -0.49134260416030884, -0.9951453804969788], "name" : "NORMAL"}, {"bufferView" : 0, "byteOffset" : 15480, "componentType" : 5123, "count" : 972, "type" : "SCALAR", "max" : [163], "min" : [0]}, {"bufferView" : 11, "byteOffset" : 0, "componentType" : 5126, "count" : 164, "type" : "VEC3", "max" : [0.3394774794578552, -0.01740102842450142, 4.637288570404053], "min" : [-0.3394774794578552, -1.5288535356521606, 3.001023769378662], "name" : "POSITION"}, {"bufferView" : 11, "byteOffset" : 12, "componentType" : 5126, "count" : 164, "type" : "VEC3", "max" : [0.9848844408988953, 1.0000044107437134, 0.9282425045967102], "min" : [-0.9848844408988953, -0.9790289998054504, -0.9185872673988342], "name" : "NORMAL"}, {"bufferView" : 0, "byteOffset" : 17424, "componentType" : 5123, "count" : 762, "type" : "SCALAR", "max" : [128], "min" : [0]}, {"bufferView" : 12, "byteOffset" : 0, "componentType" : 5126, "count" : 129, "type" : "VEC3", "max" : [1.7376277446746826, 0.19633269309997559, 1.6108009815216064], "min" : [0.3139760196208954, -1.5021345615386963, -0.025463825091719627], "name" : "POSITION"}, {"bufferView" : 12, "byteOffset" : 12, "componentType" : 5126, "count" : 129, "type" : "VEC3", "max" : [0.9848844408988953, 0.9581055641174316, 0.9311177730560303], "min" : [-0.9466513991355896, -0.9790289998054504, -0.956774115562439], "name" : "NORMAL"}, {"bufferView" : 0, "byteOffset" : 18948, "componentType" : 5123, "count" : 762, "type" : "SCALAR", "max" : [128], "min" : [0]}, {"bufferView" : 13, "byteOffset" : 0, "componentType" : 5126, "count" : 129, "type" : "VEC3", "max" : [-0.32665926218032837, 0.19148549437522888, 1.6108009815216064], "min" : [-1.7429447174072266, -1.5021345615386963, -0.025463825091719627], "name" : "POSITION"}, {"bufferView" : 13, "byteOffset" : 12, "componentType" : 5126, "count" : 129, "type" : "VEC3", "max" : [0.9469602108001709, 0.958416223526001, 0.9330404996871948], "min" : [-0.9848844408988953, -0.9790289998054504, -0.9572096467018127], "name" : "NORMAL"}, {"bufferView" : 0, "byteOffset" : 20472, "componentType" : 5123, "count" : 108, "type" : "SCALAR", "max" : [19], "min" : [0]}, {"bufferView" : 14, "byteOffset" : 0, "componentType" : 5126, "count" : 20, "type" : "VEC3", "max" : [-0.032019540667533875, 1.6398496627807617, -4.19990348815918], "min" : [-0.9183686375617981, 1.6030333042144775, -4.568992614746094], "name" : "POSITION"}, {"bufferView" : 14, "byteOffset" : 12, "componentType" : 5126, "count" : 20, "type" : "VEC3", "max" : [0.518156111240387, 0.9865245223045349, 0.8861979842185974], "min" : [-0.914519727230072, -0.8901879787445068, -0.9060454368591309], "name" : "NORMAL"}], "asset" : {"generator" : "Aspose.3D 24.2.0", "version" : "2.0"}, "buffers" : [{"uri" : "buffer.bin", "byteLength" : 62844}], "bufferViews" : [{"buffer" : 0, "byteOffset" : 0, "byteLength" : 20688, "target" : 34963}, {"buffer" : 0, "byteOffset" : 20692, "byteLength" : 480, "byteStride" : 24, "target" : 34962}, {"buffer" : 0, "byteOffset" : 21176, "byteLength" : 2304, "byteStride" : 24, "target" : 34962}, {"buffer" : 0, "byteOffset" : 23484, "byteLength" : 1536, "byteStride" : 24, "target" : 34962}, {"buffer" : 0, "byteOffset" : 25024, "byteLength" : 1536, "byteStride" : 24, "target" : 34962}, {"buffer" : 0, "byteOffset" : 26564, "byteLength" : 1536, "byteStride" : 24, "target" : 34962}, {"buffer" : 0, "byteOffset" : 28104, "byteLength" : 13680, "byteStride" : 24, "target" : 34962}, {"buffer" : 0, "byteOffset" : 41788, "byteLength" : 3096, "byteStride" : 24, "target" : 34962}, {"buffer" : 0, "byteOffset" : 44888, "byteLength" : 3072, "byteStride" : 24, "target" : 34962}, {"buffer" : 0, "byteOffset" : 47964, "byteLength" : 3072, "byteStride" : 24, "target" : 34962}, {"buffer" : 0, "byteOffset" : 51040, "byteLength" : 1176, "byteStride" : 24, "target" : 34962}, {"buffer" : 0, "byteOffset" : 52220, "byteLength" : 3936, "byteStride" : 24, "target" : 34962}, {"buffer" : 0, "byteOffset" : 56160, "byteLength" : 3096, "byteStride" : 24, "target" : 34962}, {"buffer" : 0, "byteOffset" : 59260, "byteLength" : 3096, "byteStride" : 24, "target" : 34962}, {"buffer" : 0, "byteOffset" : 62360, "byteLength" : 480, "byteStride" : 24, "target" : 34962}], "meshes" : [{"primitives" : [{"attributes" : {"POSITION" : 1, "NORMAL" : 2}, "indices" : 0, "mode" : 4}], "name" : ""}, {"primitives" : [{"attributes" : {"POSITION" : 4, "NORMAL" : 5}, "indices" : 3, "mode" : 4}], "name" : ""}, {"primitives" : [{"attributes" : {"POSITION" : 7, "NORMAL" : 8}, "indices" : 6, "mode" : 4}], "name" : ""}, {"primitives" : [{"attributes" : {"POSITION" : 10, "NORMAL" : 11}, "indices" : 9, "mode" : 4}], "name" : ""}, {"primitives" : [{"attributes" : {"POSITION" : 13, "NORMAL" : 14}, "indices" : 12, "mode" : 4}], "name" : ""}, {"primitives" : [{"attributes" : {"POSITION" : 16, "NORMAL" : 17}, "indices" : 15, "mode" : 4}], "name" : ""}, {"primitives" : [{"attributes" : {"POSITION" : 19, "NORMAL" : 20}, "indices" : 18, "mode" : 4}], "name" : ""}, {"primitives" : [{"attributes" : {"POSITION" : 22, "NORMAL" : 23}, "indices" : 21, "mode" : 4}], "name" : ""}, {"primitives" : [{"attributes" : {"POSITION" : 25, "NORMAL" : 26}, "indices" : 24, "mode" : 4}], "name" : ""}, {"primitives" : [{"attributes" : {"POSITION" : 28, "NORMAL" : 29}, "indices" : 27, "mode" : 4}], "name" : ""}, {"primitives" : [{"attributes" : {"POSITION" : 31, "NORMAL" : 32}, "indices" : 30, "mode" : 4}], "name" : ""}, {"primitives" : [{"attributes" : {"POSITION" : 34, "NORMAL" : 35}, "indices" : 33, "mode" : 4}], "name" : ""}, {"primitives" : [{"attributes" : {"POSITION" : 37, "NORMAL" : 38}, "indices" : 36, "mode" : 4}], "name" : ""}, {"primitives" : [{"attributes" : {"POSITION" : 40, "NORMAL" : 41}, "indices" : 39, "mode" : 4}], "name" : ""}], "nodes" : [{"mesh" : 0, "name" : "cylinder1_sep14_default2"}, {"mesh" : 1, "name" : "cylinder1_sep13_default2"}, {"mesh" : 2, "name" : "cylinder1_sep12_default2"}, {"mesh" : 3, "name" : "cylinder1_sep11_default2"}, {"mesh" : 4, "name" : "cylinder1_sep10_default2"}, {"mesh" : 5, "name" : "cylinder1_sep9_default2"}, {"mesh" : 6, "name" : "cylinder1_sep8_default2"}, {"mesh" : 7, "name" : "cylinder1_sep7_default2"}, {"mesh" : 8, "name" : "cylinder1_sep6_default2"}, {"mesh" : 9, "name" : "cylinder1_sep5_default2"}, {"mesh" : 10, "name" : "cylinder1_sep4_default2"}, {"mesh" : 11, "name" : "cylinder1_sep3_default2"}, {"mesh" : 12, "name" : "cylinder1_sep2_default2"}, {"mesh" : 13, "name" : "cylinder1_default2"}], "scene" : 0, "scenes" : [{"nodes" : [0, 1, 2, 3, 4, 5, 6, 7, 8, 9, 10, 11, 12, 13]}]}